<svg width="383" height="88" fill="none" xmlns="http://www.w3.org/2000/svg"><path d="M132.523 19.58v25.17h-.608l-18.889-26.144v22.942c0 .514.135.96.405 1.338.297.351.622.662.973.932.378.297.824.54 1.338.73v.202h-5.999v-.202c.054 0 .216-.054.486-.163a5.07 5.07 0 0 0 .932-.567c.325-.243.608-.554.852-.932.27-.379.405-.824.405-1.338V19.58c0-.513-.135-.958-.405-1.337a3.548 3.548 0 0 0-.852-.932 3.668 3.668 0 0 0-.932-.527c-.27-.135-.432-.203-.486-.203v-.202h3.648l18.524 25.617V19.58c0-.514-.135-.96-.406-1.338a4.207 4.207 0 0 0-.891-.932 3.673 3.673 0 0 0-.933-.527c-.27-.135-.432-.203-.486-.203v-.202h5.999v.202c-.487.19-.932.433-1.338.73a5.066 5.066 0 0 0-.932.932c-.27.379-.405.824-.405 1.338Zm18.075 25.171-.081-.08v-3.973a64.334 64.334 0 0 1-1.905 1.905c-.568.54-1.149 1-1.743 1.378a6.985 6.985 0 0 1-1.946.851c-.675.216-1.446.325-2.31.325-.919 0-1.743-.135-2.473-.406-.729-.297-1.337-.689-1.824-1.175a4.728 4.728 0 0 1-1.094-1.703 5.307 5.307 0 0 1-.406-2.067c0-1.459.446-2.648 1.338-3.567.919-.946 2.067-1.73 3.445-2.35a27.018 27.018 0 0 1 4.459-1.541 84.511 84.511 0 0 0 4.459-1.257v-.04c0-2-.514-3.54-1.541-4.62-1.026-1.082-2.432-1.622-4.215-1.622-.973 0-1.865.256-2.675.77-.811.513-1.486 1.324-2.027 2.432-.135.243-.297.419-.486.527a1 1 0 0 1-.568.162c-.27 0-.5-.054-.689-.162-.378-.216-.554-.514-.527-.892.054-.378.162-.675.324-.892.541-.702 1.338-1.324 2.392-1.864 1.081-.54 2.54-.81 4.378-.81.945 0 1.851.134 2.715.404a6.63 6.63 0 0 1 2.311 1.257c.675.567 1.216 1.297 1.621 2.189.405.864.608 1.905.608 3.12v10.783c0 .297.095.527.284.689.189.135.405.243.648.324.244.054.473.081.689.081.217-.027.338-.054.365-.08l.081.202-3.607 1.702Zm-.081-13.052a368.96 368.96 0 0 1-4.337 1.257c-1.433.405-2.716.905-3.851 1.5-1.135.567-2.067 1.283-2.797 2.148-.702.838-1.067 1.905-1.094 3.202 0 .595.094 1.162.283 1.703.19.54.487 1.013.892 1.418.406.406.905.73 1.5.973.621.243 1.324.365 2.108.365.729 0 1.418-.122 2.067-.365a8.766 8.766 0 0 0 1.864-.973 16.936 16.936 0 0 0 1.703-1.418 49.049 49.049 0 0 0 1.662-1.662v-8.148Zm6.109-6.729c.216 0 .473-.053.77-.161.324-.108.635-.244.932-.406a3.63 3.63 0 0 0 .77-.648c.216-.27.324-.568.324-.892h.203v1.905a88.441 88.441 0 0 1 2.675-.121 279.86 279.86 0 0 1 3-.163c.27-.027.554 0 .851.081.297.054.446.284.446.69 0 .405-.149.648-.446.73a3.051 3.051 0 0 1-.851.04 186.452 186.452 0 0 0-3-.122c-.864-.054-1.756-.108-2.675-.162v14.187c0 1.35.324 2.432.973 3.242.676.784 1.567 1.176 2.675 1.176 1.027 0 1.959-.365 2.797-1.094.865-.757 1.527-1.716 1.986-2.878l.365.162a9.479 9.479 0 0 1-.77 1.702 5.9 5.9 0 0 1-1.135 1.46c-.46.432-.986.783-1.581 1.053-.567.27-1.202.406-1.905.406a6 6 0 0 1-1.986-.325 4.488 4.488 0 0 1-1.622-.972c-.432-.433-.783-.973-1.053-1.622-.244-.648-.365-1.419-.365-2.31V26.552c0-.46-.135-.73-.406-.811-.243-.108-.567-.162-.972-.162v-.608Zm28.821 19.781-.081-.08v-3.973a62.001 62.001 0 0 1-1.905 1.905c-.567.54-1.148 1-1.743 1.378a6.979 6.979 0 0 1-1.945.851c-.676.216-1.446.325-2.311.325-.919 0-1.743-.135-2.472-.406-.73-.297-1.338-.689-1.824-1.175a4.718 4.718 0 0 1-1.095-1.703 5.324 5.324 0 0 1-.405-2.067c0-1.459.446-2.648 1.337-3.567.919-.946 2.068-1.73 3.446-2.35a26.986 26.986 0 0 1 4.459-1.541 84.464 84.464 0 0 0 4.458-1.257v-.04c0-2-.513-3.54-1.54-4.62-1.027-1.082-2.432-1.622-4.216-1.622-.972 0-1.864.256-2.675.77-.81.513-1.486 1.324-2.026 2.432-.136.243-.298.419-.487.527a.997.997 0 0 1-.567.162c-.271 0-.5-.054-.689-.162-.379-.216-.554-.514-.527-.892.054-.378.162-.675.324-.892.54-.702 1.338-1.324 2.391-1.864 1.081-.54 2.541-.81 4.378-.81a9.06 9.06 0 0 1 2.716.404 6.62 6.62 0 0 1 2.31 1.257c.676.567 1.216 1.297 1.622 2.189.405.864.608 1.905.608 3.12v10.783c0 .297.094.527.283.689.19.135.406.243.649.324.243.054.473.081.689.081.216-.027.338-.054.365-.08l.081.202-3.608 1.702Zm-.081-13.052a368.96 368.96 0 0 1-4.337 1.257c-1.432.405-2.716.905-3.851 1.5-1.134.567-2.067 1.283-2.796 2.148-.703.838-1.068 1.905-1.095 3.202 0 .595.095 1.162.284 1.703a3.71 3.71 0 0 0 .892 1.418c.405.406.905.73 1.499.973.622.243 1.325.365 2.108.365.73 0 1.419-.122 2.067-.365a8.773 8.773 0 0 0 1.865-.973 16.925 16.925 0 0 0 1.702-1.418 47.269 47.269 0 0 0 1.662-1.662v-8.148Zm9.798-15.24v26.306c0 .297.067.568.202.81.163.217.325.393.487.528.189.189.419.337.689.446v.202h-4.378v-.202a.93.93 0 0 0 .284-.081 2.59 2.59 0 0 0 .486-.325c.163-.162.298-.351.406-.567.135-.243.202-.514.202-.81v-23.47c0-.297-.094-.513-.283-.648a1.48 1.48 0 0 0-.649-.325 1.556 1.556 0 0 0-.689-.08c-.189 0-.311.013-.365.04l-.081-.203 3.608-1.702.081.08Zm6.446 3.851c0-.946.5-1.42 1.5-1.42.459 0 .811.122 1.054.366.27.243.405.594.405 1.053 0 .46-.135.811-.405 1.054-.243.216-.595.325-1.054.325-1 0-1.5-.46-1.5-1.378Zm2.27 3.85v18.605c0 .297.068.568.203.81.162.217.324.393.486.528.189.189.419.337.689.446v.202h-4.377v-.202a.927.927 0 0 0 .283-.081c.162-.082.325-.19.487-.325.162-.162.297-.351.405-.567.135-.243.203-.514.203-.81V26.997c0-.298-.095-.514-.284-.649a1.47 1.47 0 0 0-.649-.324 1.556 1.556 0 0 0-.689-.081c-.189 0-.31.013-.364.04l-.082-.203 3.608-1.702.081.081Zm18.008 20.591-.081-.08v-3.973a64.334 64.334 0 0 1-1.905 1.905c-.568.54-1.148 1-1.743 1.378a6.972 6.972 0 0 1-1.946.851c-.675.216-1.445.325-2.31.325-.919 0-1.743-.135-2.473-.406-.729-.297-1.337-.689-1.824-1.175a4.728 4.728 0 0 1-1.094-1.703 5.324 5.324 0 0 1-.405-2.067c0-1.459.446-2.648 1.337-3.567.919-.946 2.067-1.73 3.446-2.35a27.007 27.007 0 0 1 4.458-1.541 84.24 84.24 0 0 0 4.459-1.257v-.04c0-2-.513-3.54-1.54-4.62-1.027-1.082-2.432-1.622-4.216-1.622a4.9 4.9 0 0 0-2.675.77c-.811.513-1.486 1.324-2.027 2.432-.135.243-.297.419-.486.527a.998.998 0 0 1-.568.162 1.37 1.37 0 0 1-.689-.162c-.378-.216-.554-.514-.527-.892.055-.378.163-.675.325-.892.54-.702 1.337-1.324 2.391-1.864 1.081-.54 2.54-.81 4.378-.81a9.06 9.06 0 0 1 2.716.404c.864.27 1.634.69 2.31 1.257.676.567 1.216 1.297 1.621 2.189.406.864.608 1.905.608 3.12v10.783c0 .297.095.527.284.689.189.135.405.243.649.324.243.054.473.081.689.081.216-.027.338-.054.365-.08l.081.202-3.608 1.702Zm-.081-13.052a368.96 368.96 0 0 1-4.337 1.257c-1.432.405-2.716.905-3.851 1.5-1.135.567-2.067 1.283-2.797 2.148-.702.838-1.067 1.905-1.094 3.202 0 .595.095 1.162.284 1.703a3.72 3.72 0 0 0 .891 1.418c.406.406.906.73 1.5.973.622.243 1.324.365 2.108.365.73 0 1.419-.122 2.067-.365a8.773 8.773 0 0 0 1.865-.973 16.925 16.925 0 0 0 1.702-1.418 47.269 47.269 0 0 0 1.662-1.662v-8.148Zm16.238-12.119c0-.514-.108-.96-.324-1.338a3.102 3.102 0 0 0-.689-.932 3.015 3.015 0 0 0-.77-.527c-.216-.135-.352-.203-.406-.203v-.202h5.999v.202c-.405.19-.77.433-1.094.73-.27.243-.527.554-.77.932-.216.379-.324.824-.324 1.338v24.563h13.254c.703 0 1.257-.243 1.662-.73a4.71 4.71 0 0 0 .892-1.661 6.294 6.294 0 0 0 .365-1.743c.054-.568.081-.932.081-1.095h.202v5.837h-20.267v-.202c.054 0 .19-.054.406-.163.243-.135.5-.324.77-.567.27-.243.5-.554.689-.932.216-.379.324-.824.324-1.338V19.58Zm33.481 25.171-.081-.08v-3.973a63.146 63.146 0 0 1-1.905 1.905c-.567.54-1.148 1-1.743 1.378a6.972 6.972 0 0 1-1.946.851c-.675.216-1.445.325-2.31.325-.919 0-1.743-.135-2.473-.406-.729-.297-1.337-.689-1.824-1.175a4.728 4.728 0 0 1-1.094-1.703 5.324 5.324 0 0 1-.405-2.067c0-1.459.446-2.648 1.337-3.567.919-.946 2.067-1.73 3.446-2.35a27.007 27.007 0 0 1 4.458-1.541 84.24 84.24 0 0 0 4.459-1.257v-.04c0-2-.513-3.54-1.54-4.62-1.027-1.082-2.432-1.622-4.216-1.622a4.9 4.9 0 0 0-2.675.77c-.811.513-1.486 1.324-2.027 2.432-.135.243-.297.419-.486.527a.998.998 0 0 1-.568.162 1.37 1.37 0 0 1-.689-.162c-.378-.216-.554-.514-.527-.892.055-.378.163-.675.325-.892.54-.702 1.337-1.324 2.391-1.864 1.081-.54 2.54-.81 4.378-.81a9.06 9.06 0 0 1 2.716.404c.864.27 1.634.69 2.31 1.257.676.567 1.216 1.297 1.621 2.189.406.864.608 1.905.608 3.12v10.783c0 .297.095.527.284.689.189.135.405.243.649.324.243.054.473.081.689.081.216-.027.338-.054.365-.08l.081.202-3.608 1.702Zm-.081-13.052a368.96 368.96 0 0 1-4.337 1.257c-1.432.405-2.716.905-3.851 1.5-1.135.567-2.067 1.283-2.797 2.148-.702.838-1.067 1.905-1.094 3.202 0 .595.095 1.162.284 1.703a3.72 3.72 0 0 0 .891 1.418c.406.406.906.73 1.5.973.622.243 1.324.365 2.108.365.73 0 1.419-.122 2.067-.365a8.773 8.773 0 0 0 1.865-.973 16.925 16.925 0 0 0 1.702-1.418 47.269 47.269 0 0 0 1.662-1.662v-8.148Zm11.145-6.607c-.487 0-.879.176-1.176.527-.27.352-.473.744-.608 1.176a7.58 7.58 0 0 0-.284 1.256c-.027.406-.04.663-.04.77h-.203v-4.337h15.646l-13.741 19.66h11.755c.486 0 .865-.176 1.135-.528.27-.35.473-.743.608-1.175a4.42 4.42 0 0 0 .284-1.257c.027-.405.04-.662.04-.77h.203v4.337h-16.416l13.741-19.659H282.59Zm30.997 15.444h-.041c-.162.405-.419.878-.77 1.419a7.228 7.228 0 0 1-1.378 1.54c-.567.46-1.243.851-2.027 1.175-.756.325-1.648.487-2.675.487-.919 0-1.81-.135-2.675-.406a5.72 5.72 0 0 1-2.229-1.337c-.649-.649-1.176-1.473-1.581-2.473-.379-1.027-.568-2.283-.568-3.77v-10.7c0-.298-.081-.554-.243-.77a1.979 1.979 0 0 0-.446-.568 2.518 2.518 0 0 0-.729-.446v-.203h3.04v12.688c0 1.216.148 2.256.445 3.12.325.865.744 1.581 1.257 2.149.54.54 1.162.946 1.865 1.216a7.251 7.251 0 0 0 2.31.365 6.38 6.38 0 0 0 2.351-.446 7.036 7.036 0 0 0 2.067-1.297 6.189 6.189 0 0 0 1.459-1.986 5.787 5.787 0 0 0 .568-2.554V26.471c0-.298-.068-.554-.203-.77a1.688 1.688 0 0 0-.486-.568 2.023 2.023 0 0 0-.689-.446v-.203h2.999v17.349c0 .297.095.527.284.689.189.135.405.243.648.324.244.054.473.081.69.081.216-.027.337-.054.364-.08l.081.202-3.648 1.702-.04-.08v-4.135Zm6.1-15.566c.216 0 .473-.053.77-.161.324-.108.635-.244.932-.406.298-.189.554-.405.77-.648.217-.27.325-.568.325-.892h.202v1.905a88.359 88.359 0 0 1 2.676-.121c.891-.054 1.891-.108 2.999-.163.27-.027.554 0 .851.081.298.054.446.284.446.69 0 .405-.148.648-.446.73a3.051 3.051 0 0 1-.851.04 186.836 186.836 0 0 0-2.999-.122 733.58 733.58 0 0 0-2.676-.162v14.187c0 1.35.325 2.432.973 3.242.676.784 1.567 1.176 2.675 1.176 1.027 0 1.96-.365 2.797-1.094.865-.757 1.527-1.716 1.986-2.878l.365.162a9.479 9.479 0 0 1-.77 1.702 5.9 5.9 0 0 1-1.135 1.46 5.759 5.759 0 0 1-1.581 1.053c-.567.27-1.202.406-1.905.406a6.009 6.009 0 0 1-1.986-.325 4.484 4.484 0 0 1-1.621-.972c-.433-.433-.784-.973-1.054-1.622-.243-.648-.365-1.419-.365-2.31V26.552c0-.46-.135-.73-.405-.811-.244-.108-.568-.162-.973-.162v-.608Zm16.033-4.66c0-.946.5-1.42 1.5-1.42.459 0 .81.122 1.053.366.271.243.406.594.406 1.053 0 .46-.135.811-.406 1.054-.243.216-.594.325-1.053.325-1 0-1.5-.46-1.5-1.378Zm2.27 3.85v18.605c0 .297.067.568.202.81.163.217.325.393.487.528.189.189.419.337.689.446v.202h-4.378v-.202a.93.93 0 0 0 .284-.081 2.59 2.59 0 0 0 .486-.325c.163-.162.298-.351.406-.567.135-.243.202-.514.202-.81V26.997c0-.298-.094-.514-.283-.649a1.476 1.476 0 0 0-.649-.324 1.558 1.558 0 0 0-.689-.081c-.189 0-.311.013-.365.04l-.081-.203 3.608-1.702.081.081Zm8.716 4.54h.041c.162-.405.418-.878.77-1.419.351-.54.81-1.04 1.378-1.5a7.47 7.47 0 0 1 2.027-1.215c.783-.325 1.675-.487 2.675-.487.919 0 1.797.135 2.635.405a5.47 5.47 0 0 1 2.269 1.379c.649.621 1.162 1.445 1.541 2.472.405 1 .608 2.243.608 3.73v10.7c0 .297.067.568.202.81.162.217.338.393.527.528.189.189.419.337.689.446v.202h-4.377v-.202a.927.927 0 0 0 .283-.081c.163-.082.311-.19.446-.325.162-.162.298-.351.406-.567.135-.243.202-.514.202-.81V32.063c0-1.216-.162-2.256-.486-3.12-.297-.866-.716-1.568-1.257-2.109a4.31 4.31 0 0 0-1.864-1.216 6.27 6.27 0 0 0-2.27-.405 6.21 6.21 0 0 0-2.392.486 6.672 6.672 0 0 0-2.067 1.297 6.422 6.422 0 0 0-1.459 1.987c-.351.756-.527 1.594-.527 2.513v11.268c0 .297.068.568.203.81.162.217.324.393.486.528.189.189.419.337.689.446v.202h-4.337v-.202a.93.93 0 0 0 .284-.081 1.74 1.74 0 0 0 .446-.325c.162-.162.297-.351.405-.567.135-.243.203-.514.203-.81V27.402c0-.297-.095-.527-.284-.69a1.47 1.47 0 0 0-.649-.323 3.177 3.177 0 0 0-.689-.082c-.189 0-.31.014-.364.041l-.081-.162 3.648-1.703.04.081V28.7Zm31.981 16.051-.081-.08v-3.973a62.001 62.001 0 0 1-1.905 1.905c-.567.54-1.148 1-1.743 1.378a6.972 6.972 0 0 1-1.946.851c-.675.216-1.445.325-2.31.325-.919 0-1.743-.135-2.473-.406-.729-.297-1.337-.689-1.824-1.175a4.728 4.728 0 0 1-1.094-1.703 5.324 5.324 0 0 1-.405-2.067c0-1.459.446-2.648 1.337-3.567.919-.946 2.068-1.73 3.446-2.35a27.007 27.007 0 0 1 4.458-1.541 84.24 84.24 0 0 0 4.459-1.257v-.04c0-2-.513-3.54-1.54-4.62-1.027-1.082-2.432-1.622-4.216-1.622-.972 0-1.864.256-2.675.77-.811.513-1.486 1.324-2.027 2.432-.135.243-.297.419-.486.527a.997.997 0 0 1-.567.162c-.271 0-.5-.054-.69-.162-.378-.216-.553-.514-.526-.892.054-.378.162-.675.324-.892.54-.702 1.337-1.324 2.391-1.864 1.081-.54 2.54-.81 4.378-.81a9.06 9.06 0 0 1 2.716.404 6.63 6.63 0 0 1 2.31 1.257c.676.567 1.216 1.297 1.621 2.189.406.864.608 1.905.608 3.12v10.783c0 .297.095.527.284.689.189.135.406.243.649.324.243.054.473.081.689.081.216-.027.338-.054.365-.08l.081.202-3.608 1.702Zm-.081-13.052a368.96 368.96 0 0 1-4.337 1.257c-1.432.405-2.716.905-3.851 1.5-1.135.567-2.067 1.283-2.797 2.148-.702.838-1.067 1.905-1.094 3.202 0 .595.095 1.162.284 1.703a3.71 3.71 0 0 0 .892 1.418c.405.406.905.73 1.499.973.622.243 1.324.365 2.108.365.73 0 1.419-.122 2.067-.365a8.773 8.773 0 0 0 1.865-.973 16.925 16.925 0 0 0 1.702-1.418 47.269 47.269 0 0 0 1.662-1.662v-8.148Z" fill="#4B5C76"/><path d="M65.213 57.73c.511-4.697 3.946-8.132 8.642-8.643-.517 4.695-3.952 8.13-8.642 8.642Zm-33.443 0c-.512-4.697-3.952-8.132-8.642-8.643.516 4.695 3.951 8.13 8.642 8.642Zm7.087-40.247c.775-.196 3.497-5.863 5.961-5.037 1.127.378 1.514 2.03 1.984 2.728-.083-.124-2.118-1.777-2.283-1.834-1.338-.45-3.244 3.534-5.662 4.143Zm-1.39-.33a7.699 7.699 0 0 1-.702-2.97c-.031-1.148.212-2.248.728-3.178A5.046 5.046 0 0 1 39.86 8.81c.682-.31 1.467-.496 2.356-.522l.026.94c-.76.02-1.426.176-1.994.434a4.168 4.168 0 0 0-1.927 1.793c-.434.785-.64 1.72-.615 2.696a6.8 6.8 0 0 0 .62 2.609l-.857.392Zm4.314-6.179.052-.098c.098-.212.227-.49.46-.604.289-.145.609-.057.934.583l-.506.259c-.129-.259-.17-.336-.17-.336-.057.03-.145.207-.207.34l-.057.12-.506-.264Zm14.102 19.124a9.65 9.65 0 0 1 .79 1.75c3.286 7.879 2.496 14.718-1.725 22.771 2.03-3.869 3.095-7.95 3.141-12.046-.398 3.817-1.694 7.599-3.621 11.277 2.96-5.646 3.874-11.747 2.547-17.688-1.044 5.78-6.742 7.093-9.18-.118.574 1.694 1.441 2.748 2.402 3.28-.702-.801-1.358-1.968-1.9-3.575 1.182 3.487 3.62 4.267 5.485 3.358 1.88-1.312 2.888-4.479.739-8.24l.506-.289-.015-.036.423-.207.408-.237ZM59.96 64.02c-.077-2.774-.511-5.657-1.4-8.678-2.164 3.858-5.016 7.34-8.373 10.166 2.412-2.046 4.556-4.624 6.338-7.532a36.714 36.714 0 0 1-6.71 7.475c2.712-2.299 5.088-5.28 6.989-8.632-1.953 2.975-4.324 5.677-7.025 7.95 7.485-6.349 12.382-17.827 11.953-28.272-.248-3.854-1.235-7.552-3.105-10.776-1.291-2.231-2.536-3.13-4.003-3.404-1.116-.129-2.36.052-3.848.248-.91.124-1.891.093-2.945-.077a13.878 13.878 0 0 1-1.761-.362l.206-1.596c1.472.398 2.795.522 3.962.361 3.25-.433 5.724-3.285 9.097 3.002.036.062.067.129.098.19.098.177.202.357.305.548 4.871 9.082 4.2 19.589-.036 28.484.553 3.518 1.55 5.646 1.694 9.63-.475.417-.96.841-1.436 1.275Zm-46.956-9.303C18.225 66.826 29.3 75.778 42.225 78.37c-.083-.124-19.692-5.393-28.06-23.183l-.02-.042-.006-.005-.015-.036-.021-.041-.02-.042-.021-.041-.021-.041c-.14-.3-.274-.605-.408-.91l.01.006c-.201-.48-.387-.961-.583-1.473a63.619 63.619 0 0 1 13.906 7.31A64.032 64.032 0 0 1 45.17 79.244l1.115 1.84-2.123-.305c-7.79-1.106-14.918-4.36-20.76-9.108C17.6 66.965 13.07 60.782 10.42 53.782a61.751 61.751 0 0 0-6.72-1.87C7.283 64.92 14.913 74.198 24.273 79.745c6.984 4.138 14.934 6.21 22.89 6.21 7.955 0 15.905-2.072 22.889-6.21 9.36-5.548 16.995-14.825 20.575-27.833a61.748 61.748 0 0 0-6.72 1.87c-2.645 7-7.181 13.183-12.982 17.89-5.843 4.742-12.971 8.001-20.761 9.107l-2.123.3 1.116-1.84a64.03 64.03 0 0 1 18.204-19.371 63.836 63.836 0 0 1 13.906-7.31 62.82 62.82 0 0 1-.584 1.473l.01-.006c-.134.305-.268.61-.408.91l-.02.04-.021.042-.02.041-.021.042-.016.036v.005l-.02.041c-8.37 17.796-27.978 23.06-28.06 23.184 14.102-2.826 25.316-12.8 30.28-26.226a37.514 37.514 0 0 0 1.524-5.837c.372-2.113.564-4.288.564-6.51 0-10.305-4.18-19.634-10.931-26.386a37.339 37.339 0 0 0-15.508-9.319C51.199 2.007 33.925-.509 33.584 9.905c-.057 1.767.083 3.58.346 5.352 1.131 7.51 3.621 8.378 2.883 16.82-.615 6.988 6.947 6.24 7.309 2.5-.108 1.141-.511 2.215-1.178 2.995.91-.495 1.565-1.337 1.674-2.453-.165 1.72-.966 2.887-2.025 3.502 0 0-.052.052.17.579.486 1.177.956 2.345 1.385 3.497.45 1.198.847 2.35 1.178 3.45 1.384 4.593 1.348 4.63-1.73 7.8-.42.435-.9.93-1.458 1.52-2.99 3.177-4.644 6.834-5.16 11.06a64.596 64.596 0 0 0-2.263-2.186c.693-3.895 2.382-7.314 5.228-10.341a81.039 81.039 0 0 1 1.472-1.53c2.691-2.773 2.728-2.81 1.498-6.87a56.194 56.194 0 0 0-1.157-3.394c-.367-.981-.775-2.01-1.204-3.058-2.686-.041-5.62-2.624-5.175-7.697.656-7.506-4.412-13.28-3.88-21.644.8-12.398 18.829-10.233 27.285-7.62a39.292 39.292 0 0 1 16.205 9.784c7.124 7.124 11.53 16.964 11.53 27.833a39.58 39.58 0 0 1-.6 6.86 38.666 38.666 0 0 1-1.125 4.685 64.727 64.727 0 0 1 7.03-1.761l1.56-.3-.377 1.54c-3.528 14.417-11.752 24.645-21.928 30.674C63.77 85.83 55.46 88 47.148 88c-8.306 0-16.618-2.17-23.922-6.498C13.049 75.468 4.83 65.245 1.302 50.828l-.377-1.54 1.56.3a64.433 64.433 0 0 1 7.03 1.761 39.412 39.412 0 0 1-1.724-11.545c0-10.869 4.406-20.71 11.53-27.833a39.634 39.634 0 0 1 6.59-5.31c.275-.134.595-.14.879-.01.362.165.594.521.6.919a1.04 1.04 0 0 1-.378.811 37.398 37.398 0 0 0-6.25 5.037C14.01 20.169 9.83 29.498 9.83 39.804c0 2.294.202 4.525.589 6.674a36.48 36.48 0 0 0 1.498 5.672c.346.863.708 1.715 1.085 2.568Zm28.112-33.273c-.43.894-1.168 1.901-2.3 1.565-2.024-.599-2.758-4.726-3.093-6.472.434 1.116 2.056 5.18 3.357 5.568.558.166.992-.671 1.183-1.064l.853.403Z" fill="#8ACBB0"/><path fill-rule="evenodd" clip-rule="evenodd" d="M51.663 64.191c1.921-.578 4.917-5.537 6.39-4.824 1.28.62 1.084 4.075.867 5.238-.051.279-.123.47-.17.573.078-.119.263-.351.615-.687.067-.062.377-.31.594-.486-.078-2.768-.512-5.65-1.4-8.662a37.178 37.178 0 0 1-6.896 8.848Zm-8.534-49.374c.212-.268.589-.449.94-.449.201 0 1.839.429 2.583.666-.486-.428-1.989-1.642-2.134-1.694-1.301-.434-3.13 3.296-5.444 4.076.94.294 3.487-1.865 4.055-2.599Zm.785 25.426c-.661-2.314.646-3.389.522-4.08-.33 1.156-.997 1.978-1.829 2.463 0 0-.051.052.17.579.486 1.178.956 2.345 1.385 3.497a54.86 54.86 0 0 1 1.178 3.45c.367 1.21.63 2.108.77 2.821.831-2.283-1.684-6.948-2.196-8.73Zm-2.381 30.73c0-10.046-1.085-11.074 4.174-19.396-.006.005-.006.005-.006.01-.413.63-1.09 1.328-2.092 2.356l-1.456 1.518c-2.991 3.177-4.644 6.834-5.161 11.06l.047-.103c.748.155 3.94 3.693 4.494 4.556Zm-5.037-47.968c4.019 1.911 4.572.067 8.25 2.046-4.417-2.723-5.528-1.157-8.25-2.046Zm10.378-.594c.088.604.155 1.147.212 1.519.506-.114.95-.181 1.358-.217-.671-.465-1.08-.987-1.57-1.302Zm-.914 2.418a6.755 6.755 0 0 1-.005-.574 9.987 9.987 0 0 0-1.245.46c.449-.186.862-.341 1.245-.465.056-1.782.526-5.403-.657-6.24.889.423 1.307 2.598 1.56 4.308.336.072.657.13.977.17 1.054.176 2.035.202 2.944.078 1.488-.201 2.733-.382 3.849-.248 1.462.274 2.712 1.167 4.003 3.404 1.87 3.224 2.857 6.922 3.105 10.776.212 5.088-.842 10.42-2.846 15.285.568-2.526.991-5.677 1.26-8.379.486-4.917.155-18.937-7.103-18.668-2.03.072-3.26-.264-4.107-.718-.589-.037-1.157-.078-1.834 0l.037.19c-.212.182-1.1.703-1.183.62Zm5.6 15.951c3.419 1.886 4.762-2.696 5.16 2.955.129 1.829.036 3.404-.661 5.832a12.6 12.6 0 0 0-.352 1.607c1.953-4.871 2.428-9.996 1.307-15.012-.65 3.6-3.104 5.465-5.455 4.618ZM36.527 53.07c.646-3.327-.981-6.41-4.096-7.754-.64 3.327.987 6.41 4.096 7.754ZM63.7 49.433c.454-3.358 2.985-5.76 6.358-6.039-.454 3.358-2.98 5.76-6.359 6.039Z" fill="#CCF3FF"/><path d="M111.965 70.974v-8.45h5.642v8.45h-.988v-7.826h-3.666v7.826h-.988Zm10.296.117c-.208 0-.394-.022-.559-.065a2.493 2.493 0 0 1-.364-.104.848.848 0 0 1-.156-.091l.143-.69a.865.865 0 0 0 .143.092 2.093 2.093 0 0 0 .793.156c.33 0 .624-.091.884-.273.26-.19.516-.55.767-1.08l-3.38-6.512h1.144l2.73 5.473 1.989-5.473h.78l-2.418 6.188c-.346.875-.719 1.49-1.118 1.846a2.009 2.009 0 0 1-1.378.533Zm9.079-.117v-7.826h-2.405v-.624h5.811v.624h-2.418v7.826h-.988Zm6.018-8.45h.988v3.406h1.001c.988 0 1.751.203 2.288.61.546.408.819 1.015.819 1.82 0 .833-.26 1.478-.78 1.938-.511.45-1.27.676-2.275.676h-2.041v-8.45Zm2.015 7.878c.702 0 1.222-.165 1.56-.494.347-.338.52-.845.52-1.521 0-.659-.182-1.14-.546-1.443-.355-.312-.875-.468-1.56-.468h-1.001v3.926h1.027Zm10.551.572v-8.45h.988v4.602l1.027-.91 2.847-3.692h.793l-2.964 3.77 3.367 4.68h-1.235l-2.86-3.926-.975.819v3.107h-.988Zm13.429 0v-8.45h.988v6.799l-.065.429h.013l4.108-7.085.065-.143h.923v8.45h-.975V64.24l.052-.481h-.013l-4.095 7.072-.065.143h-.936Zm8.987-.624h.702c.364-.728.637-1.681.819-2.86.182-1.188.273-2.843.273-4.966h4.303v7.826h.988l-.156 2.82h-.637l-.143-2.196h-5.265l-.234 2.197h-.585l-.065-2.821Zm5.122 0v-7.202h-2.639c-.017 1.88-.117 3.371-.299 4.472-.182 1.1-.442 2.01-.78 2.73h3.718Zm4.918.624v-8.45h4.55v.624h-3.562v3.25h3.263v.598h-3.263v3.354h3.848v.624h-4.836Zm6.966 0 2.847-8.45h1.157l2.795 8.45h-1.027l-.884-2.6h-3.315l-.884 2.6h-.689Zm1.755-3.133h2.964l-1.469-4.563-1.495 4.563Zm7.441 3.224c-.156 0-.282-.013-.377-.04a.914.914 0 0 1-.156-.038l.039-.702a.845.845 0 0 0 .117.039c.061.008.13.013.208.013 1.222 0 1.833-2.605 1.833-7.813h4.121v8.45h-.975v-7.826h-2.47c-.009 2.583-.217 4.55-.624 5.902-.407 1.343-.979 2.015-1.716 2.015Zm9.536-8.541h.988v3.406h1.001c.988 0 1.751.203 2.288.61.546.408.819 1.015.819 1.82 0 .833-.26 1.478-.78 1.938-.511.45-1.269.676-2.275.676h-2.041v-8.45Zm2.015 7.878c.702 0 1.222-.165 1.56-.494.347-.338.52-.845.52-1.521 0-.659-.182-1.14-.546-1.443-.355-.312-.875-.468-1.56-.468h-1.001v3.926h1.027Zm6.217.572v-8.45h.988v3.796h3.861v-3.796h.988v8.45h-.988v-4.056h-3.861v4.056h-.988Zm12.606.13c-.754 0-1.404-.174-1.95-.52-.537-.347-.949-.845-1.235-1.495-.286-.659-.429-1.434-.429-2.327s.143-1.664.429-2.314c.286-.659.698-1.161 1.235-1.508.546-.355 1.196-.533 1.95-.533s1.404.178 1.95.533c.546.346.962.85 1.248 1.508.295.65.442 1.421.442 2.314 0 .892-.147 1.668-.442 2.327-.286.65-.702 1.148-1.248 1.495-.546.346-1.196.52-1.95.52Zm0-.624c.832 0 1.469-.317 1.911-.95.451-.632.676-1.555.676-2.768 0-1.205-.225-2.128-.676-2.77-.442-.64-1.079-.961-1.911-.961-.823 0-1.456.32-1.898.962-.442.641-.663 1.564-.663 2.769 0 1.213.217 2.136.65 2.769.442.632 1.079.949 1.911.949Zm6.79.494.039-8.45.026.039-.013-.04h1.209l2.977 7.242h.013l2.977-7.241h1.144l.039 8.45h-.962l-.039-7.241h-.013l-2.925 7.24h-.793l-2.938-7.24-.026 7.24h-.715Zm13.051.117c-.208 0-.394-.022-.559-.065a2.493 2.493 0 0 1-.364-.104.848.848 0 0 1-.156-.091l.143-.69a.865.865 0 0 0 .143.092 2.093 2.093 0 0 0 .793.156c.33 0 .624-.091.884-.273.26-.19.516-.55.767-1.08l-3.38-6.512h1.144l2.73 5.473 1.989-5.473h.78l-2.418 6.188c-.346.875-.719 1.49-1.118 1.846a2.009 2.009 0 0 1-1.378.533Zm13.413-.117v-7.826h-2.405v-.624h5.811v.624h-2.418v7.826h-.988Zm6.018 0v-8.45h4.55v.624h-3.562v3.25h3.263v.598h-3.263v3.354h3.848v.624h-4.836Zm7.473.09c-.156 0-.282-.012-.377-.038a.914.914 0 0 1-.156-.04l.039-.701a.845.845 0 0 0 .117.039c.061.008.13.013.208.013 1.222 0 1.833-2.605 1.833-7.813h4.121v8.45h-.975v-7.826h-2.47c-.009 2.583-.217 4.55-.624 5.902-.407 1.343-.979 2.015-1.716 2.015Zm10.433.027c-.208 0-.394-.022-.559-.065a2.493 2.493 0 0 1-.364-.104.848.848 0 0 1-.156-.091l.143-.69a.865.865 0 0 0 .143.092 2.093 2.093 0 0 0 .793.156c.33 0 .624-.091.884-.273.26-.19.516-.55.767-1.08l-3.38-6.512h1.144l2.73 5.473 1.989-5.473h.78l-2.418 6.188c-.346.875-.719 1.49-1.118 1.846a2.009 2.009 0 0 1-1.378.533Z" fill="#316952"/></svg>