<svg width="61" height="8" viewBox="0 0 61 8" fill="none" xmlns="http://www.w3.org/2000/svg">
<path d="M1.38037 3.5C1.10423 3.5 0.880371 3.72386 0.880371 4C0.880371 4.27614 1.10423 4.5 1.38037 4.5V3.5ZM60.7339 4.35355C60.9292 4.15829 60.9292 3.84171 60.7339 3.64645L57.5519 0.464466C57.3567 0.269204 57.0401 0.269204 56.8448 0.464466C56.6496 0.659728 56.6496 0.976311 56.8448 1.17157L59.6733 4L56.8448 6.82843C56.6496 7.02369 56.6496 7.34027 56.8448 7.53553C57.0401 7.7308 57.3567 7.7308 57.5519 7.53553L60.7339 4.35355ZM1.38037 4.5H60.3804V3.5H1.38037V4.5Z" fill="#61BE97"/>
</svg>
