<svg width="383" height="88" viewBox="0 0 383 88" fill="none" xmlns="http://www.w3.org/2000/svg">
<path d="M132.523 19.5799V44.7513H131.915L113.026 18.607V41.5491C113.026 42.0626 113.161 42.5084 113.431 42.8868C113.728 43.238 114.053 43.5488 114.404 43.819C114.782 44.1163 115.228 44.3595 115.742 44.5486V44.7513H109.743V44.5486C109.797 44.5486 109.959 44.4946 110.229 44.3865C110.526 44.2514 110.837 44.0622 111.161 43.819C111.486 43.5758 111.769 43.2651 112.013 42.8868C112.283 42.5084 112.418 42.0626 112.418 41.5491V19.5799C112.418 19.0664 112.283 18.6206 112.013 18.2422C111.769 17.8639 111.486 17.5532 111.161 17.31C110.837 17.0668 110.526 16.8911 110.229 16.783C109.959 16.6479 109.797 16.5804 109.743 16.5804V16.3777H113.391L131.915 41.995V19.5799C131.915 19.0664 131.78 18.6206 131.509 18.2422C131.239 17.8639 130.942 17.5532 130.618 17.31C130.293 17.0668 129.983 16.8911 129.685 16.783C129.415 16.6479 129.253 16.5804 129.199 16.5804V16.3777H135.198V16.5804C134.711 16.7695 134.266 17.0127 133.86 17.31C133.536 17.5532 133.225 17.8639 132.928 18.2422C132.658 18.6206 132.523 19.0664 132.523 19.5799Z" fill="#4B5C76"/>
<path d="M150.598 44.7513L150.517 44.6702V40.6979C149.841 41.4005 149.206 42.0355 148.612 42.603C148.044 43.1435 147.463 43.6028 146.869 43.9812C146.274 44.3595 145.626 44.6432 144.923 44.8324C144.248 45.0485 143.477 45.1566 142.613 45.1566C141.694 45.1566 140.87 45.0215 140.14 44.7513C139.411 44.4541 138.803 44.0622 138.316 43.5758C137.83 43.0894 137.465 42.5219 137.222 41.8734C136.951 41.2249 136.816 40.5358 136.816 39.8062C136.816 38.347 137.262 37.158 138.154 36.2392C139.073 35.2934 140.221 34.5098 141.599 33.8883C142.977 33.2667 144.464 32.7533 146.058 32.348C147.652 31.9426 149.139 31.5238 150.517 31.0914V31.0509C150.517 29.0512 150.003 27.511 148.976 26.4301C147.95 25.3492 146.544 24.8087 144.761 24.8087C143.788 24.8087 142.896 25.0654 142.086 25.5788C141.275 26.0923 140.6 26.9029 140.059 28.0109C139.924 28.2541 139.762 28.4297 139.573 28.5378C139.411 28.6459 139.221 28.6999 139.005 28.6999C138.735 28.6999 138.505 28.6459 138.316 28.5378C137.938 28.3216 137.762 28.0244 137.789 27.6461C137.843 27.2678 137.951 26.9705 138.113 26.7543C138.654 26.0517 139.451 25.4302 140.505 24.8898C141.586 24.3493 143.045 24.0791 144.883 24.0791C145.828 24.0791 146.734 24.2142 147.598 24.4844C148.463 24.7547 149.233 25.1735 149.909 25.741C150.584 26.3085 151.125 27.0381 151.53 27.9298C151.935 28.7945 152.138 29.8349 152.138 31.0509V41.8329C152.138 42.1301 152.233 42.3598 152.422 42.5219C152.611 42.6571 152.827 42.7652 153.07 42.8462C153.314 42.9003 153.543 42.9273 153.759 42.9273C153.976 42.9003 154.097 42.8732 154.124 42.8462L154.205 43.0489L150.598 44.7513ZM150.517 31.6994C149.058 32.1318 147.612 32.5506 146.18 32.956C144.747 33.3613 143.464 33.8612 142.329 34.4557C141.194 35.0232 140.262 35.7393 139.532 36.604C138.83 37.4417 138.465 38.5091 138.438 39.8062C138.438 40.4007 138.532 40.9682 138.721 41.5086C138.911 42.0491 139.208 42.5219 139.613 42.9273C140.019 43.3326 140.518 43.6569 141.113 43.9001C141.734 44.1433 142.437 44.2649 143.221 44.2649C143.95 44.2649 144.639 44.1433 145.288 43.9001C145.936 43.6569 146.558 43.3326 147.152 42.9273C147.747 42.4949 148.314 42.022 148.855 41.5086C149.422 40.9682 149.976 40.4142 150.517 39.8467V31.6994Z" fill="#4B5C76"/>
<path d="M156.626 24.9708C156.842 24.9708 157.099 24.9168 157.396 24.8087C157.72 24.7006 158.031 24.5655 158.328 24.4034C158.625 24.2142 158.882 23.998 159.098 23.7548C159.314 23.4846 159.422 23.1874 159.422 22.8631H159.625V24.7682C160.517 24.7141 161.409 24.6736 162.3 24.6466C163.192 24.5925 164.192 24.5385 165.3 24.4844C165.57 24.4574 165.854 24.4844 166.151 24.5655C166.448 24.6195 166.597 24.8492 166.597 25.2546C166.597 25.6599 166.448 25.9031 166.151 25.9842C165.854 26.0382 165.57 26.0517 165.3 26.0247C164.165 25.9707 163.165 25.9301 162.3 25.9031C161.436 25.8491 160.544 25.795 159.625 25.741V39.9278C159.625 41.2789 159.949 42.3598 160.598 43.1705C161.274 43.9541 162.165 44.346 163.273 44.346C164.3 44.346 165.232 43.9812 166.07 43.2516C166.935 42.4949 167.597 41.5356 168.056 40.3737L168.421 40.5358C168.232 41.1033 167.975 41.6707 167.651 42.2382C167.354 42.7787 166.975 43.2651 166.516 43.6974C166.056 44.1298 165.53 44.4811 164.935 44.7513C164.368 45.0215 163.733 45.1566 163.03 45.1566C162.327 45.1566 161.665 45.0485 161.044 44.8324C160.422 44.6162 159.882 44.2919 159.422 43.8596C158.99 43.4272 158.639 42.8868 158.369 42.2382C158.125 41.5897 158.004 40.8195 158.004 39.9278V26.5517C158.004 26.0923 157.869 25.822 157.598 25.741C157.355 25.6329 157.031 25.5788 156.626 25.5788V24.9708Z" fill="#4B5C76"/>
<path d="M185.447 44.7513L185.366 44.6702V40.6979C184.691 41.4005 184.056 42.0355 183.461 42.603C182.894 43.1435 182.313 43.6028 181.718 43.9812C181.124 44.3595 180.475 44.6432 179.773 44.8324C179.097 45.0485 178.327 45.1566 177.462 45.1566C176.543 45.1566 175.719 45.0215 174.99 44.7513C174.26 44.4541 173.652 44.0622 173.166 43.5758C172.679 43.0894 172.314 42.5219 172.071 41.8734C171.801 41.2249 171.666 40.5358 171.666 39.8062C171.666 38.347 172.112 37.158 173.003 36.2392C173.922 35.2934 175.071 34.5098 176.449 33.8883C177.827 33.2667 179.313 32.7533 180.908 32.348C182.502 31.9426 183.988 31.5238 185.366 31.0914V31.0509C185.366 29.0512 184.853 27.511 183.826 26.4301C182.799 25.3492 181.394 24.8087 179.61 24.8087C178.638 24.8087 177.746 25.0654 176.935 25.5788C176.125 26.0923 175.449 26.9029 174.909 28.0109C174.773 28.2541 174.611 28.4297 174.422 28.5378C174.26 28.6459 174.071 28.6999 173.855 28.6999C173.584 28.6999 173.355 28.6459 173.166 28.5378C172.787 28.3216 172.612 28.0244 172.639 27.6461C172.693 27.2678 172.801 26.9705 172.963 26.7543C173.503 26.0517 174.301 25.4302 175.354 24.8898C176.435 24.3493 177.895 24.0791 179.732 24.0791C180.678 24.0791 181.583 24.2142 182.448 24.4844C183.313 24.7547 184.083 25.1735 184.758 25.741C185.434 26.3085 185.974 27.0381 186.38 27.9298C186.785 28.7945 186.988 29.8349 186.988 31.0509V41.8329C186.988 42.1301 187.082 42.3598 187.271 42.5219C187.461 42.6571 187.677 42.7652 187.92 42.8462C188.163 42.9003 188.393 42.9273 188.609 42.9273C188.825 42.9003 188.947 42.8732 188.974 42.8462L189.055 43.0489L185.447 44.7513ZM185.366 31.6994C183.907 32.1318 182.461 32.5506 181.029 32.956C179.597 33.3613 178.313 33.8612 177.178 34.4557C176.044 35.0232 175.111 35.7393 174.382 36.604C173.679 37.4417 173.314 38.5091 173.287 39.8062C173.287 40.4007 173.382 40.9682 173.571 41.5086C173.76 42.0491 174.057 42.5219 174.463 42.9273C174.868 43.3326 175.368 43.6569 175.962 43.9001C176.584 44.1433 177.287 44.2649 178.07 44.2649C178.8 44.2649 179.489 44.1433 180.137 43.9001C180.786 43.6569 181.407 43.3326 182.002 42.9273C182.596 42.4949 183.164 42.022 183.704 41.5086C184.272 40.9682 184.826 40.4142 185.366 39.8467V31.6994Z" fill="#4B5C76"/>
<path d="M195.164 16.4588V42.7651C195.164 43.0624 195.231 43.3326 195.366 43.5758C195.529 43.792 195.691 43.9677 195.853 44.1028C196.042 44.2919 196.272 44.4405 196.542 44.5486V44.7513H192.164V44.5486C192.218 44.5486 192.313 44.5216 192.448 44.4676C192.61 44.3865 192.772 44.2784 192.934 44.1433C193.097 43.9812 193.232 43.792 193.34 43.5758C193.475 43.3326 193.542 43.0624 193.542 42.7651V19.2961C193.542 18.9989 193.448 18.7827 193.259 18.6476C193.069 18.4854 192.853 18.3774 192.61 18.3233C192.367 18.2422 192.137 18.2152 191.921 18.2422C191.732 18.2422 191.61 18.2557 191.556 18.2828L191.475 18.0801L195.083 16.3777L195.164 16.4588Z" fill="#4B5C76"/>
<path d="M201.61 20.3095C201.61 19.3637 202.11 18.8908 203.11 18.8908C203.569 18.8908 203.921 19.0124 204.164 19.2556C204.434 19.4988 204.569 19.8501 204.569 20.3095C204.569 20.7688 204.434 21.1201 204.164 21.3633C203.921 21.5795 203.569 21.6876 203.11 21.6876C202.11 21.6876 201.61 21.2282 201.61 20.3095ZM203.88 24.1602V42.7651C203.88 43.0624 203.948 43.3326 204.083 43.5758C204.245 43.792 204.407 43.9677 204.569 44.1028C204.758 44.2919 204.988 44.4405 205.258 44.5486V44.7513H200.881V44.5486C200.935 44.5486 201.029 44.5216 201.164 44.4676C201.326 44.3865 201.489 44.2784 201.651 44.1433C201.813 43.9812 201.948 43.792 202.056 43.5758C202.191 43.3326 202.259 43.0624 202.259 42.7651V26.9975C202.259 26.7003 202.164 26.4841 201.975 26.349C201.786 26.1869 201.57 26.0788 201.326 26.0247C201.083 25.9436 200.854 25.9166 200.637 25.9436C200.448 25.9436 200.327 25.9572 200.273 25.9842L200.191 25.7815L203.799 24.0791L203.88 24.1602Z" fill="#4B5C76"/>
<path d="M221.888 44.7513L221.807 44.6702V40.6979C221.131 41.4005 220.496 42.0355 219.902 42.603C219.334 43.1435 218.754 43.6028 218.159 43.9812C217.565 44.3595 216.916 44.6432 216.213 44.8324C215.538 45.0485 214.768 45.1566 213.903 45.1566C212.984 45.1566 212.16 45.0215 211.43 44.7513C210.701 44.4541 210.093 44.0622 209.606 43.5758C209.12 43.0894 208.755 42.5219 208.512 41.8734C208.242 41.2249 208.107 40.5358 208.107 39.8062C208.107 38.347 208.553 37.158 209.444 36.2392C210.363 35.2934 211.511 34.5098 212.89 33.8883C214.268 33.2667 215.754 32.7533 217.348 32.348C218.943 31.9426 220.429 31.5238 221.807 31.0914V31.0509C221.807 29.0512 221.294 27.511 220.267 26.4301C219.24 25.3492 217.835 24.8087 216.051 24.8087C215.078 24.8087 214.187 25.0654 213.376 25.5788C212.565 26.0923 211.89 26.9029 211.349 28.0109C211.214 28.2541 211.052 28.4297 210.863 28.5378C210.701 28.6459 210.512 28.6999 210.295 28.6999C210.025 28.6999 209.796 28.6459 209.606 28.5378C209.228 28.3216 209.052 28.0244 209.079 27.6461C209.134 27.2678 209.242 26.9705 209.404 26.7543C209.944 26.0517 210.741 25.4302 211.795 24.8898C212.876 24.3493 214.335 24.0791 216.173 24.0791C217.119 24.0791 218.024 24.2142 218.889 24.4844C219.753 24.7547 220.523 25.1735 221.199 25.741C221.875 26.3085 222.415 27.0381 222.82 27.9298C223.226 28.7945 223.428 29.8349 223.428 31.0509V41.8329C223.428 42.1301 223.523 42.3598 223.712 42.5219C223.901 42.6571 224.117 42.7652 224.361 42.8462C224.604 42.9003 224.834 42.9273 225.05 42.9273C225.266 42.9003 225.388 42.8732 225.415 42.8462L225.496 43.0489L221.888 44.7513ZM221.807 31.6994C220.348 32.1318 218.902 32.5506 217.47 32.956C216.038 33.3613 214.754 33.8612 213.619 34.4557C212.484 35.0232 211.552 35.7393 210.822 36.604C210.12 37.4417 209.755 38.5091 209.728 39.8062C209.728 40.4007 209.823 40.9682 210.012 41.5086C210.201 42.0491 210.498 42.5219 210.903 42.9273C211.309 43.3326 211.809 43.6569 212.403 43.9001C213.025 44.1433 213.727 44.2649 214.511 44.2649C215.241 44.2649 215.93 44.1433 216.578 43.9001C217.227 43.6569 217.848 43.3326 218.443 42.9273C219.037 42.4949 219.605 42.022 220.145 41.5086C220.713 40.9682 221.267 40.4142 221.807 39.8467V31.6994Z" fill="#4B5C76"/>
<path d="M238.045 19.5799C238.045 19.0664 237.937 18.6206 237.721 18.2422C237.532 17.8639 237.302 17.5532 237.032 17.31C236.762 17.0668 236.505 16.8911 236.262 16.783C236.046 16.6479 235.91 16.5804 235.856 16.5804V16.3777H241.855V16.5804C241.45 16.7695 241.085 17.0127 240.761 17.31C240.491 17.5532 240.234 17.8639 239.991 18.2422C239.775 18.6206 239.667 19.0664 239.667 19.5799V44.1433H252.921C253.624 44.1433 254.178 43.9001 254.583 43.4137C254.988 42.9273 255.286 42.3733 255.475 41.7518C255.691 41.1303 255.813 40.5493 255.84 40.0089C255.894 39.4414 255.921 39.0766 255.921 38.9144H256.123V44.7513H235.856V44.5486C235.91 44.5486 236.046 44.4946 236.262 44.3865C236.505 44.2514 236.762 44.0622 237.032 43.819C237.302 43.5758 237.532 43.2651 237.721 42.8868C237.937 42.5084 238.045 42.0626 238.045 41.5491V19.5799Z" fill="#4B5C76"/>
<path d="M271.526 44.7513L271.445 44.6702V40.6979C270.77 41.4005 270.134 42.0355 269.54 42.603C268.973 43.1435 268.392 43.6028 267.797 43.9812C267.203 44.3595 266.554 44.6432 265.851 44.8324C265.176 45.0485 264.406 45.1566 263.541 45.1566C262.622 45.1566 261.798 45.0215 261.068 44.7513C260.339 44.4541 259.731 44.0622 259.244 43.5758C258.758 43.0894 258.393 42.5219 258.15 41.8734C257.88 41.2249 257.745 40.5358 257.745 39.8062C257.745 38.347 258.191 37.158 259.082 36.2392C260.001 35.2934 261.149 34.5098 262.528 33.8883C263.906 33.2667 265.392 32.7533 266.986 32.348C268.581 31.9426 270.067 31.5238 271.445 31.0914V31.0509C271.445 29.0512 270.932 27.511 269.905 26.4301C268.878 25.3492 267.473 24.8087 265.689 24.8087C264.716 24.8087 263.825 25.0654 263.014 25.5788C262.203 26.0923 261.528 26.9029 260.987 28.0109C260.852 28.2541 260.69 28.4297 260.501 28.5378C260.339 28.6459 260.15 28.6999 259.933 28.6999C259.663 28.6999 259.434 28.6459 259.244 28.5378C258.866 28.3216 258.69 28.0244 258.717 27.6461C258.772 27.2678 258.88 26.9705 259.042 26.7543C259.582 26.0517 260.379 25.4302 261.433 24.8898C262.514 24.3493 263.973 24.0791 265.811 24.0791C266.757 24.0791 267.662 24.2142 268.527 24.4844C269.391 24.7547 270.161 25.1735 270.837 25.741C271.513 26.3085 272.053 27.0381 272.458 27.9298C272.864 28.7945 273.066 29.8349 273.066 31.0509V41.8329C273.066 42.1301 273.161 42.3598 273.35 42.5219C273.539 42.6571 273.755 42.7652 273.999 42.8462C274.242 42.9003 274.472 42.9273 274.688 42.9273C274.904 42.9003 275.026 42.8732 275.053 42.8462L275.134 43.0489L271.526 44.7513ZM271.445 31.6994C269.986 32.1318 268.54 32.5506 267.108 32.956C265.676 33.3613 264.392 33.8612 263.257 34.4557C262.122 35.0232 261.19 35.7393 260.46 36.604C259.758 37.4417 259.393 38.5091 259.366 39.8062C259.366 40.4007 259.461 40.9682 259.65 41.5086C259.839 42.0491 260.136 42.5219 260.541 42.9273C260.947 43.3326 261.447 43.6569 262.041 43.9001C262.663 44.1433 263.365 44.2649 264.149 44.2649C264.879 44.2649 265.568 44.1433 266.216 43.9001C266.865 43.6569 267.486 43.3326 268.081 42.9273C268.675 42.4949 269.243 42.022 269.783 41.5086C270.351 40.9682 270.905 40.4142 271.445 39.8467V31.6994Z" fill="#4B5C76"/>
<path d="M282.59 25.0924C282.103 25.0924 281.711 25.2681 281.414 25.6194C281.144 25.9707 280.941 26.3625 280.806 26.7949C280.671 27.2272 280.576 27.6461 280.522 28.0514C280.495 28.4567 280.482 28.7135 280.482 28.8215H280.279V24.4844H295.925L282.184 44.1433H293.939C294.425 44.1433 294.804 43.9677 295.074 43.6164C295.344 43.2651 295.547 42.8732 295.682 42.4409C295.844 42.0085 295.939 41.5897 295.966 41.1843C295.993 40.779 296.006 40.5223 296.006 40.4142H296.209V44.7513H279.793L293.534 25.0924H282.59Z" fill="#4B5C76"/>
<path d="M313.587 40.5358H313.546C313.384 40.9411 313.127 41.414 312.776 41.9545C312.425 42.4949 311.966 43.0084 311.398 43.4948C310.831 43.9541 310.155 44.346 309.371 44.6702C308.615 44.9945 307.723 45.1566 306.696 45.1566C305.777 45.1566 304.886 45.0215 304.021 44.7513C303.183 44.4811 302.44 44.0352 301.792 43.4137C301.143 42.7652 300.616 41.941 300.211 40.9411C299.832 39.9143 299.643 38.6577 299.643 37.1715V26.4706C299.643 26.1733 299.562 25.9166 299.4 25.7004C299.265 25.4572 299.116 25.2681 298.954 25.133C298.738 24.9438 298.495 24.7952 298.225 24.6871V24.4844H301.265V37.1715C301.265 38.3875 301.413 39.4279 301.71 40.2926C302.035 41.1573 302.454 41.8734 302.967 42.4409C303.507 42.9813 304.129 43.3867 304.832 43.6569C305.561 43.9001 306.331 44.0217 307.142 44.0217C307.953 44.0217 308.736 43.8731 309.493 43.5758C310.277 43.2516 310.966 42.8192 311.56 42.2787C312.182 41.7113 312.668 41.0492 313.019 40.2926C313.398 39.5089 313.587 38.6577 313.587 37.739V26.4706C313.587 26.1733 313.519 25.9166 313.384 25.7004C313.249 25.4572 313.087 25.2681 312.898 25.133C312.709 24.9438 312.479 24.7952 312.209 24.6871V24.4844H315.208V41.8329C315.208 42.1301 315.303 42.3598 315.492 42.5219C315.681 42.6571 315.897 42.7652 316.14 42.8462C316.384 42.9003 316.613 42.9273 316.83 42.9273C317.046 42.9003 317.167 42.8732 317.194 42.8462L317.275 43.0489L313.627 44.7513L313.587 44.6702V40.5358Z" fill="#4B5C76"/>
<path d="M319.687 24.9708C319.903 24.9708 320.16 24.9168 320.457 24.8087C320.781 24.7006 321.092 24.5655 321.389 24.4034C321.687 24.2142 321.943 23.998 322.159 23.7548C322.376 23.4846 322.484 23.1874 322.484 22.8631H322.686V24.7682C323.578 24.7141 324.47 24.6736 325.362 24.6466C326.253 24.5925 327.253 24.5385 328.361 24.4844C328.631 24.4574 328.915 24.4844 329.212 24.5655C329.51 24.6195 329.658 24.8492 329.658 25.2546C329.658 25.6599 329.51 25.9031 329.212 25.9842C328.915 26.0382 328.631 26.0517 328.361 26.0247C327.226 25.9707 326.226 25.9301 325.362 25.9031C324.497 25.8491 323.605 25.795 322.686 25.741V39.9278C322.686 41.2789 323.011 42.3598 323.659 43.1705C324.335 43.9541 325.226 44.346 326.334 44.346C327.361 44.346 328.294 43.9812 329.131 43.2516C329.996 42.4949 330.658 41.5356 331.117 40.3737L331.482 40.5358C331.293 41.1033 331.036 41.6707 330.712 42.2382C330.415 42.7787 330.036 43.2651 329.577 43.6974C329.118 44.1298 328.591 44.4811 327.996 44.7513C327.429 45.0215 326.794 45.1566 326.091 45.1566C325.389 45.1566 324.727 45.0485 324.105 44.8324C323.484 44.6162 322.943 44.2919 322.484 43.8596C322.051 43.4272 321.7 42.8868 321.43 42.2382C321.187 41.5897 321.065 40.8195 321.065 39.9278V26.5517C321.065 26.0923 320.93 25.822 320.66 25.741C320.416 25.6329 320.092 25.5788 319.687 25.5788V24.9708Z" fill="#4B5C76"/>
<path d="M335.72 20.3095C335.72 19.3637 336.22 18.8908 337.22 18.8908C337.679 18.8908 338.03 19.0124 338.273 19.2556C338.544 19.4988 338.679 19.8501 338.679 20.3095C338.679 20.7688 338.544 21.1201 338.273 21.3633C338.03 21.5795 337.679 21.6876 337.22 21.6876C336.22 21.6876 335.72 21.2282 335.72 20.3095ZM337.99 24.1602V42.7652C337.99 43.0624 338.057 43.3326 338.192 43.5758C338.355 43.792 338.517 43.9677 338.679 44.1028C338.868 44.2919 339.098 44.4405 339.368 44.5486V44.7513H334.99V44.5486C335.044 44.5486 335.139 44.5216 335.274 44.4676C335.436 44.3865 335.598 44.2784 335.76 44.1433C335.923 43.9812 336.058 43.792 336.166 43.5758C336.301 43.3326 336.368 43.0624 336.368 42.7652V26.9975C336.368 26.7003 336.274 26.4841 336.085 26.349C335.896 26.1869 335.679 26.0788 335.436 26.0247C335.193 25.9436 334.963 25.9166 334.747 25.9436C334.558 25.9436 334.436 25.9572 334.382 25.9842L334.301 25.7815L337.909 24.0791L337.99 24.1602Z" fill="#4B5C76"/>
<path d="M346.706 28.6999H346.747C346.909 28.2946 347.165 27.8217 347.517 27.2813C347.868 26.7408 348.327 26.2409 348.895 25.7815C349.462 25.2951 350.138 24.8898 350.922 24.5655C351.705 24.2412 352.597 24.0791 353.597 24.0791C354.516 24.0791 355.394 24.2142 356.232 24.4844C357.096 24.7547 357.853 25.214 358.501 25.8626C359.15 26.4841 359.663 27.3083 360.042 28.3351C360.447 29.335 360.65 30.578 360.65 32.0642V42.7652C360.65 43.0624 360.717 43.3326 360.852 43.5758C361.014 43.792 361.19 43.9677 361.379 44.1028C361.568 44.2919 361.798 44.4405 362.068 44.5486V44.7513H357.691V44.5486C357.745 44.5486 357.839 44.5216 357.974 44.4676C358.137 44.3865 358.285 44.2784 358.42 44.1433C358.582 43.9812 358.718 43.792 358.826 43.5758C358.961 43.3326 359.028 43.0624 359.028 42.7652V32.0642C359.028 30.8482 358.866 29.8079 358.542 28.9431C358.245 28.0784 357.826 27.3758 357.285 26.8354C356.772 26.2679 356.15 25.8626 355.421 25.6194C354.718 25.3492 353.962 25.214 353.151 25.214C352.34 25.214 351.543 25.3762 350.759 25.7004C350.003 25.9977 349.314 26.4301 348.692 26.9975C348.098 27.538 347.611 28.2 347.233 28.9837C346.882 29.7403 346.706 30.578 346.706 31.4968V42.7652C346.706 43.0624 346.774 43.3326 346.909 43.5758C347.071 43.792 347.233 43.9677 347.395 44.1028C347.584 44.2919 347.814 44.4405 348.084 44.5486V44.7513H343.747V44.5486C343.801 44.5486 343.896 44.5216 344.031 44.4676C344.193 44.3865 344.342 44.2784 344.477 44.1433C344.639 43.9812 344.774 43.792 344.882 43.5758C345.017 43.3326 345.085 43.0624 345.085 42.7652V27.4029C345.085 27.1056 344.99 26.8759 344.801 26.7138C344.612 26.5517 344.396 26.4436 344.152 26.3895C343.909 26.3355 343.68 26.3085 343.463 26.3085C343.274 26.3085 343.153 26.322 343.099 26.349L343.018 26.1869L346.666 24.4844L346.706 24.5655V28.6999Z" fill="#4B5C76"/>
<path d="M378.687 44.7513L378.606 44.6702V40.6979C377.931 41.4005 377.296 42.0355 376.701 42.603C376.134 43.1435 375.553 43.6028 374.958 43.9812C374.364 44.3595 373.715 44.6432 373.012 44.8324C372.337 45.0485 371.567 45.1566 370.702 45.1566C369.783 45.1566 368.959 45.0215 368.229 44.7513C367.5 44.4541 366.892 44.0622 366.405 43.5758C365.919 43.0894 365.554 42.5219 365.311 41.8734C365.041 41.2249 364.906 40.5358 364.906 39.8062C364.906 38.347 365.352 37.158 366.243 36.2392C367.162 35.2934 368.311 34.5098 369.689 33.8883C371.067 33.2667 372.553 32.7533 374.147 32.348C375.742 31.9426 377.228 31.5238 378.606 31.0914V31.0509C378.606 29.0512 378.093 27.511 377.066 26.4301C376.039 25.3492 374.634 24.8087 372.85 24.8087C371.878 24.8087 370.986 25.0654 370.175 25.5788C369.364 26.0923 368.689 26.9029 368.148 28.0109C368.013 28.2541 367.851 28.4297 367.662 28.5378C367.5 28.6459 367.311 28.6999 367.095 28.6999C366.824 28.6999 366.595 28.6459 366.405 28.5378C366.027 28.3216 365.852 28.0244 365.879 27.6461C365.933 27.2678 366.041 26.9705 366.203 26.7543C366.743 26.0517 367.54 25.4302 368.594 24.8898C369.675 24.3493 371.134 24.0791 372.972 24.0791C373.918 24.0791 374.823 24.2142 375.688 24.4844C376.552 24.7547 377.323 25.1735 377.998 25.741C378.674 26.3085 379.214 27.0381 379.619 27.9298C380.025 28.7945 380.227 29.8349 380.227 31.0509V41.8329C380.227 42.1301 380.322 42.3598 380.511 42.5219C380.7 42.6571 380.917 42.7652 381.16 42.8462C381.403 42.9003 381.633 42.9273 381.849 42.9273C382.065 42.9003 382.187 42.8732 382.214 42.8462L382.295 43.0489L378.687 44.7513ZM378.606 31.6994C377.147 32.1318 375.701 32.5506 374.269 32.956C372.837 33.3613 371.553 33.8612 370.418 34.4557C369.283 35.0232 368.351 35.7393 367.621 36.604C366.919 37.4417 366.554 38.5091 366.527 39.8062C366.527 40.4007 366.622 40.9682 366.811 41.5086C367 42.0491 367.297 42.5219 367.703 42.9273C368.108 43.3326 368.608 43.6569 369.202 43.9001C369.824 44.1433 370.526 44.2649 371.31 44.2649C372.04 44.2649 372.729 44.1433 373.377 43.9001C374.026 43.6569 374.647 43.3326 375.242 42.9273C375.836 42.4949 376.404 42.022 376.944 41.5086C377.512 40.9682 378.066 40.4142 378.606 39.8467V31.6994Z" fill="#4B5C76"/>
<path d="M65.2126 57.7291C65.724 53.0335 69.1592 49.5983 73.8549 49.0869C73.3383 53.7825 69.9031 57.2177 65.2126 57.7291ZM31.7698 57.7291C31.2584 53.0335 27.818 49.5983 23.1275 49.0869C23.6441 53.7825 27.0793 57.2177 31.7698 57.7291ZM38.8572 17.483C39.632 17.2868 42.3543 11.62 44.8184 12.4465C45.9445 12.8236 46.332 14.4766 46.802 15.174C46.7194 15.05 44.6841 13.397 44.5188 13.3401C43.1809 12.8907 41.2747 16.8735 38.8572 17.483ZM37.4676 17.1524C37.0233 16.1761 36.7909 15.1585 36.765 14.1822C36.734 13.0354 36.9768 11.9351 37.4934 11.0052C38.0151 10.0599 38.8055 9.28506 39.8593 8.80981C40.5412 8.49987 41.3264 8.3139 42.2149 8.28808L42.2407 9.22824C41.4813 9.2489 40.815 9.40387 40.2467 9.66216C39.3944 10.0496 38.7487 10.685 38.3199 11.4547C37.886 12.2398 37.6794 13.1748 37.7052 14.1512C37.731 15.0087 37.9325 15.8972 38.3251 16.7598L37.4676 17.1524ZM41.7809 10.9742L41.8326 10.8761C41.9307 10.6643 42.0599 10.3854 42.2924 10.2717C42.5816 10.1271 42.9019 10.2149 43.2273 10.8554L42.7211 11.1137C42.592 10.8554 42.5506 10.778 42.5506 10.778C42.4938 10.8089 42.406 10.9846 42.344 11.1189L42.2872 11.2377L41.7809 10.9742ZM55.8834 30.0977C56.2191 30.6814 56.4774 31.2652 56.6737 31.8489C59.9591 39.7266 59.1688 46.566 54.9484 54.6194C56.9785 50.7503 58.0426 46.6693 58.0891 42.5729C57.6914 46.3904 56.3948 50.1717 54.4679 53.8497C57.4279 48.2036 58.3422 42.1028 57.0146 36.1623C55.9712 41.9427 50.2734 43.2548 47.8352 36.0435C48.4086 37.7378 49.2764 38.7916 50.2372 39.3237C49.5347 38.523 48.8786 37.3556 48.3362 35.749C49.5192 39.2359 51.9574 40.0159 53.8222 39.1067C55.7026 37.7946 56.7099 34.6281 54.5609 30.8674L55.0672 30.5781L55.0517 30.542L55.4753 30.3354L55.8834 30.0977ZM59.9591 64.021C59.8816 61.247 59.4477 58.3645 58.5592 55.3426C56.3948 59.2014 53.5433 62.6831 50.1856 65.5087C52.598 63.4631 54.7417 60.8854 56.5239 57.9771C54.6333 60.7666 52.3707 63.2978 49.8136 65.4519C52.5256 63.1531 54.9019 60.1725 56.8029 56.82C54.8502 59.7954 52.4791 62.4971 49.7775 64.77C57.2626 58.4213 62.1597 46.9431 61.7309 36.498C61.483 32.6444 60.4963 28.9458 58.6264 25.7224C57.3349 23.4908 56.09 22.5919 54.6229 22.3182C53.5071 22.189 52.2622 22.3698 50.7745 22.5661C49.8653 22.6901 48.8838 22.6591 47.83 22.4886C47.2618 22.4111 46.678 22.2923 46.0685 22.127L46.2751 20.5308C47.7473 20.9286 49.0698 21.0526 50.2372 20.8924C53.4865 20.4585 55.9608 17.607 59.334 23.8937C59.3702 23.9557 59.4012 24.0228 59.4322 24.0848C59.5304 24.2605 59.6337 24.4413 59.737 24.6324C64.6083 33.7137 63.9367 44.2208 59.7008 53.1162C60.2536 56.634 61.2505 58.7623 61.3952 62.7451C60.9199 63.1635 60.4344 63.5871 59.9591 64.021ZM13.0027 54.7175C18.2253 66.826 29.3006 75.7782 42.2252 78.3713C42.1425 78.2474 22.5335 72.9783 14.165 55.1876L14.1444 55.1463L14.1392 55.1411L14.1237 55.105L14.103 55.0636L14.0824 55.0223L14.0617 54.981L14.041 54.9397C13.9016 54.64 13.7673 54.3353 13.633 54.0305L13.6433 54.0357C13.4418 53.5552 13.2559 53.0748 13.0596 52.5634C18.0238 54.4334 22.6885 56.8975 26.9657 59.8729C34.3062 64.9715 40.5153 71.5733 45.1697 79.2444L46.2855 81.0833L44.1623 80.7786C36.3724 79.6731 29.2438 76.4187 23.4013 71.6714C17.6002 66.9654 13.0699 60.7821 10.4199 53.7825C8.23478 53.0387 5.99286 52.4136 3.69928 51.9125C7.28429 64.9198 14.9141 74.1974 24.2743 79.7454C31.2584 83.8832 39.2084 85.9546 47.1636 85.9546C55.1188 85.9546 63.0689 83.8832 70.0529 79.7454C79.4132 74.1974 87.0481 64.9198 90.628 51.9125C88.3344 52.4136 86.0925 53.0387 83.9074 53.7825C81.2625 60.7821 76.727 66.9654 70.9259 71.6714C65.0835 76.4135 57.9548 79.6731 50.1649 80.7786L48.0418 81.0782L49.1576 79.2392C53.8119 71.5681 60.0211 64.9663 67.3616 59.8677C71.6388 56.8975 76.3034 54.4282 81.2677 52.5583C81.0714 53.0697 80.8803 53.5552 80.684 54.0305L80.6943 54.0253C80.56 54.3301 80.4257 54.6349 80.2862 54.9345L80.2655 54.9758L80.2449 55.0171L80.2242 55.0585L80.2036 55.0998L80.188 55.136V55.1411L80.1674 55.1824C71.7989 72.9783 52.1899 78.2422 52.1072 78.3662C66.2096 75.5405 77.4244 65.5655 82.3886 52.1398C83.0447 50.2647 83.5561 48.312 83.9125 46.3026C84.2845 44.1898 84.4756 42.015 84.4756 39.7938C84.4756 29.4882 80.2965 20.1589 73.5449 13.4073C69.2729 9.13525 63.9677 5.89635 58.0375 4.08835C51.1981 2.00657 33.9239 -0.509139 33.583 9.90494C33.5261 11.6716 33.6656 13.4848 33.9291 15.2566C35.0603 22.7676 37.5502 23.6354 36.8115 32.0762C36.1968 39.0654 43.7594 38.3164 44.121 34.5764C44.0125 35.718 43.6096 36.7925 42.9432 37.5725C43.8524 37.0766 44.5084 36.2346 44.6169 35.1188C44.4516 36.839 43.6509 38.0064 42.592 38.6212C42.592 38.6212 42.5403 38.6728 42.7624 39.1997C43.248 40.3775 43.7181 41.5449 44.1468 42.6969C44.5963 43.8954 44.994 45.0473 45.3246 46.1476C46.709 50.7399 46.6729 50.7761 43.5941 53.9478C43.1757 54.3818 42.6953 54.8777 42.1374 55.4666C39.1464 58.6435 37.4934 62.3008 36.9768 66.5264C36.2433 65.7825 35.4891 65.0541 34.7143 64.3413C35.4065 60.4463 37.0956 57.0266 39.942 53.9995C40.4895 53.4158 40.9803 52.9095 41.4142 52.4704C44.1055 49.6965 44.1417 49.6603 42.9122 45.6C42.5765 44.4946 42.189 43.3633 41.7551 42.2062C41.3883 41.2247 40.9803 40.1967 40.5515 39.1481C37.8653 39.1067 34.9312 36.5239 35.3755 31.4511C36.0315 23.9454 30.9639 18.1701 31.496 9.8068C32.2967 -2.59092 50.325 -0.426486 58.7813 2.18737C64.975 4.09868 70.5178 7.49772 74.9862 11.9712C82.1097 19.0948 86.516 28.9354 86.516 39.8041C86.516 42.139 86.3094 44.4326 85.9168 46.6642C85.6379 48.2552 85.2608 49.8204 84.7907 51.3495C87.0791 50.6366 89.4295 50.0477 91.8213 49.588L93.3813 49.2884L93.0042 50.8277C89.476 65.2453 81.2522 75.4734 71.0757 81.5018C63.7714 85.8306 55.4598 88.0002 47.1481 88.0002C38.8417 88.0002 30.53 85.8306 23.2257 81.5018C13.0492 75.4682 4.83058 65.2453 1.30239 50.8277L0.925293 49.2884L2.48534 49.588C4.88223 50.0477 7.22747 50.6366 9.51588 51.3495C9.06647 49.8824 8.6997 48.374 8.42075 46.8346C8.0075 44.5359 7.79053 42.1855 7.79053 39.8041C7.79053 28.9354 12.1969 19.0948 19.3204 11.9712C21.3144 9.97727 23.5253 8.19509 25.9119 6.66088C26.1856 6.52657 26.5059 6.5214 26.79 6.65054C27.1516 6.81585 27.3841 7.17228 27.3893 7.57004C27.3944 7.88515 27.2498 8.18476 27.0122 8.38106C24.7496 9.83262 22.6575 11.5218 20.7616 13.4176C14.0101 20.1692 9.83098 29.4985 9.83098 39.8041C9.83098 42.0977 10.0325 44.3293 10.4199 46.4782C10.7712 48.4257 11.2722 50.3215 11.9179 52.1502C12.264 53.0128 12.6256 53.8652 13.0027 54.7175ZM41.1146 21.4452C40.6858 22.3388 39.9471 23.3461 38.8158 23.0104C36.7909 22.4111 36.0573 18.2837 35.7216 16.5377C36.1555 17.6535 37.7775 21.7189 39.0793 22.1064C39.6372 22.2717 40.0711 21.4348 40.2622 21.0422L41.1146 21.4452Z" fill="#8ACBB0"/>
<path fill-rule="evenodd" clip-rule="evenodd" d="M51.6626 64.1914C53.5843 63.6128 56.5804 58.6537 58.0526 59.3666C59.3337 59.9865 59.1374 63.4423 58.9205 64.6046C58.8688 64.8836 58.7965 65.0747 58.75 65.178C58.8275 65.0592 59.0134 64.8268 59.3647 64.491C59.4319 64.429 59.7418 64.181 59.9588 64.0054C59.8813 61.2366 59.4474 58.3541 58.5589 55.3425C56.7199 58.6227 54.385 61.624 51.6626 64.1914ZM43.1289 14.8174C43.3407 14.5488 43.7178 14.368 44.069 14.368C44.2705 14.368 45.908 14.7968 46.6519 15.0344C46.1663 14.6057 44.6631 13.3917 44.5184 13.3401C43.2167 12.9061 41.388 16.6358 39.0738 17.4158C40.0139 17.7102 42.5606 15.551 43.1289 14.8174ZM43.9141 40.2431C43.2528 37.9289 44.5598 36.8544 44.4358 36.1622C44.1052 37.3193 43.4388 38.1407 42.6071 38.6262C42.6071 38.6262 42.5555 38.6779 42.7776 39.2048C43.2632 40.3826 43.7333 41.55 44.162 42.702C44.6114 43.9004 45.0092 45.0524 45.3398 46.1527C45.7066 47.3615 45.97 48.2603 46.1095 48.9732C46.9412 46.6899 44.4255 42.0253 43.9141 40.2431ZM41.5327 70.9739C41.5327 60.9266 40.4479 59.8987 45.7066 51.5767C45.7014 51.5819 45.7014 51.5819 45.7014 51.587C45.2881 52.2172 44.6114 52.9146 43.6093 53.9426L42.1526 55.4613C39.1616 58.6382 37.5086 62.2955 36.992 66.5211L37.0385 66.4178C37.7875 66.5728 40.9799 70.1113 41.5327 70.9739ZM36.4961 23.0051C40.515 24.9164 41.0678 23.0723 44.7457 25.0507C40.3291 22.3284 39.2184 23.8936 36.4961 23.0051ZM46.874 22.4111C46.9618 23.0154 47.029 23.5578 47.0858 23.9298C47.5921 23.8161 48.0363 23.749 48.4444 23.7128C47.7728 23.2479 47.3648 22.7262 46.874 22.4111ZM45.9597 24.8286C45.9494 24.6736 45.9493 24.4773 45.9545 24.2552C45.5774 24.3637 45.1693 24.5135 44.7096 24.715C45.159 24.529 45.5723 24.374 45.9545 24.25C46.0113 22.4679 46.4814 18.8467 45.2985 18.0099C46.187 18.4334 46.6054 20.6082 46.8585 22.3181C47.1943 22.3904 47.5146 22.4472 47.8348 22.4885C48.8886 22.6642 49.8701 22.69 50.7793 22.566C52.267 22.3646 53.512 22.1838 54.6278 22.3181C56.0897 22.5918 57.3398 23.4855 58.6312 25.7223C60.5012 28.9457 61.4878 32.6443 61.7358 36.498C61.9476 41.5862 60.8938 46.9172 58.8895 51.7833C59.4577 49.2573 59.8813 46.1062 60.1499 43.4045C60.6355 38.4868 60.3049 24.467 53.047 24.7356C51.0169 24.8079 49.7875 24.4722 48.9403 24.0176C48.3514 23.9814 47.7832 23.9401 47.1065 24.0176L47.1426 24.2087C46.9308 24.3895 46.0423 24.9113 45.9597 24.8286ZM51.5593 40.7803C54.979 42.6658 56.3221 38.0838 56.7199 43.7351C56.849 45.5638 56.756 47.1393 56.0587 49.5672C55.8779 50.2078 55.7797 50.6985 55.7074 51.1738C57.66 46.3025 58.1353 41.1781 57.0143 36.1622C56.3634 39.7627 53.9097 41.6275 51.5593 40.7803Z" fill="#CCF3FF"/>
<path fill-rule="evenodd" clip-rule="evenodd" d="M36.5274 53.0698C37.1731 49.7431 35.5459 46.6591 32.431 45.316C31.7904 48.6428 33.4176 51.7267 36.5274 53.0698Z" fill="#CCF3FF"/>
<path fill-rule="evenodd" clip-rule="evenodd" d="M63.6992 49.433C64.1538 46.0753 66.685 43.6732 70.0582 43.3943C69.6036 46.752 67.0776 49.1541 63.6992 49.433Z" fill="#CCF3FF"/>
<path d="M111.965 70.9739V62.5239H117.607V70.9739H116.619V63.1479H112.953V70.9739H111.965ZM122.261 71.0909C122.053 71.0909 121.867 71.0692 121.702 71.0259C121.546 70.9912 121.425 70.9565 121.338 70.9219C121.252 70.8785 121.2 70.8482 121.182 70.8309L121.325 70.1419C121.343 70.1592 121.39 70.1895 121.468 70.2329C121.546 70.2675 121.655 70.3022 121.793 70.3369C121.932 70.3715 122.088 70.3889 122.261 70.3889C122.591 70.3889 122.885 70.2979 123.145 70.1159C123.405 69.9252 123.661 69.5655 123.912 69.0369L120.532 62.5239H121.676L124.406 67.9969L126.395 62.5239H127.175L124.757 68.7119C124.411 69.5872 124.038 70.2025 123.639 70.5579C123.241 70.9132 122.781 71.0909 122.261 71.0909ZM131.34 70.9739V63.1479H128.935V62.5239H134.746V63.1479H132.328V70.9739H131.34ZM137.358 62.5239H138.346V65.9299H139.347C140.335 65.9299 141.098 66.1335 141.635 66.5409C142.181 66.9482 142.454 67.5549 142.454 68.3609C142.454 69.1929 142.194 69.8385 141.674 70.2979C141.163 70.7485 140.404 70.9739 139.399 70.9739H137.358V62.5239ZM139.373 70.4019C140.075 70.4019 140.595 70.2372 140.933 69.9079C141.28 69.5699 141.453 69.0629 141.453 68.3869C141.453 67.7282 141.271 67.2472 140.907 66.9439C140.552 66.6319 140.032 66.4759 139.347 66.4759H138.346V70.4019H139.373ZM149.924 70.9739V62.5239H150.912V67.1259L151.939 66.2159L154.786 62.5239H155.579L152.615 66.2939L155.982 70.9739H154.747L151.887 67.0479L150.912 67.8669V70.9739H149.924ZM163.353 70.9739V62.5239H164.341V69.3229L164.276 69.7519H164.289L168.397 62.6669L168.462 62.5239H169.385V70.9739H168.41V64.2399L168.462 63.7589H168.449L164.354 70.8309L164.289 70.9739H163.353ZM172.34 70.3499H173.042C173.406 69.6219 173.679 68.6685 173.861 67.4899C174.043 66.3025 174.134 64.6472 174.134 62.5239H178.437V70.3499H179.425L179.269 73.1709H178.632L178.489 70.9739H173.224L172.99 73.1709H172.405L172.34 70.3499ZM177.462 70.3499V63.1479H174.823C174.806 65.0285 174.706 66.5192 174.524 67.6199C174.342 68.7205 174.082 69.6305 173.744 70.3499H177.462ZM182.38 70.9739V62.5239H186.93V63.1479H183.368V66.3979H186.631V66.9959H183.368V70.3499H187.216V70.9739H182.38ZM189.346 70.9739L192.193 62.5239H193.35L196.145 70.9739H195.118L194.234 68.3739H190.919L190.035 70.9739H189.346ZM191.101 67.8409H194.065L192.596 63.2779L191.101 67.8409ZM198.542 71.0649C198.386 71.0649 198.26 71.0519 198.165 71.0259C198.078 71.0085 198.026 70.9955 198.009 70.9869L198.048 70.2849C198.065 70.2935 198.104 70.3065 198.165 70.3239C198.226 70.3325 198.295 70.3369 198.373 70.3369C199.595 70.3369 200.206 67.7325 200.206 62.5239H204.327V70.9739H203.352V63.1479H200.882C200.873 65.7305 200.665 67.6979 200.258 69.0499C199.851 70.3932 199.279 71.0649 198.542 71.0649ZM208.078 62.5239H209.066V65.9299H210.067C211.055 65.9299 211.818 66.1335 212.355 66.5409C212.901 66.9482 213.174 67.5549 213.174 68.3609C213.174 69.1929 212.914 69.8385 212.394 70.2979C211.883 70.7485 211.125 70.9739 210.119 70.9739H208.078V62.5239ZM210.093 70.4019C210.795 70.4019 211.315 70.2372 211.653 69.9079C212 69.5699 212.173 69.0629 212.173 68.3869C212.173 67.7282 211.991 67.2472 211.627 66.9439C211.272 66.6319 210.752 66.4759 210.067 66.4759H209.066V70.4019H210.093ZM216.31 70.9739V62.5239H217.298V66.3199H221.159V62.5239H222.147V70.9739H221.159V66.9179H217.298V70.9739H216.31ZM228.916 71.1039C228.162 71.1039 227.512 70.9305 226.966 70.5839C226.429 70.2372 226.017 69.7389 225.731 69.0889C225.445 68.4302 225.302 67.6545 225.302 66.7619C225.302 65.8692 225.445 65.0979 225.731 64.4479C226.017 63.7892 226.429 63.2865 226.966 62.9399C227.512 62.5845 228.162 62.4069 228.916 62.4069C229.67 62.4069 230.32 62.5845 230.866 62.9399C231.412 63.2865 231.828 63.7892 232.114 64.4479C232.409 65.0979 232.556 65.8692 232.556 66.7619C232.556 67.6545 232.409 68.4302 232.114 69.0889C231.828 69.7389 231.412 70.2372 230.866 70.5839C230.32 70.9305 229.67 71.1039 228.916 71.1039ZM228.916 70.4799C229.748 70.4799 230.385 70.1635 230.827 69.5309C231.278 68.8982 231.503 67.9752 231.503 66.7619C231.503 65.5572 231.278 64.6342 230.827 63.9929C230.385 63.3515 229.748 63.0309 228.916 63.0309C228.093 63.0309 227.46 63.3515 227.018 63.9929C226.576 64.6342 226.355 65.5572 226.355 66.7619C226.355 67.9752 226.572 68.8982 227.005 69.5309C227.447 70.1635 228.084 70.4799 228.916 70.4799ZM235.706 70.9739L235.745 62.5239L235.771 62.5629L235.758 62.5239H236.967L239.944 69.7649H239.957L242.934 62.5239H244.078L244.117 70.9739H243.155L243.116 63.7329H243.103L240.178 70.9739H239.385L236.447 63.7329L236.421 70.9739H235.706ZM248.757 71.0909C248.549 71.0909 248.363 71.0692 248.198 71.0259C248.042 70.9912 247.921 70.9565 247.834 70.9219C247.748 70.8785 247.696 70.8482 247.678 70.8309L247.821 70.1419C247.839 70.1592 247.886 70.1895 247.964 70.2329C248.042 70.2675 248.151 70.3022 248.289 70.3369C248.428 70.3715 248.584 70.3889 248.757 70.3889C249.087 70.3889 249.381 70.2979 249.641 70.1159C249.901 69.9252 250.157 69.5655 250.408 69.0369L247.028 62.5239H248.172L250.902 67.9969L252.891 62.5239H253.671L251.253 68.7119C250.907 69.5872 250.534 70.2025 250.135 70.5579C249.737 70.9132 249.277 71.0909 248.757 71.0909ZM262.17 70.9739V63.1479H259.765V62.5239H265.576V63.1479H263.158V70.9739H262.17ZM268.188 70.9739V62.5239H272.738V63.1479H269.176V66.3979H272.439V66.9959H269.176V70.3499H273.024V70.9739H268.188ZM275.661 71.0649C275.505 71.0649 275.379 71.0519 275.284 71.0259C275.197 71.0085 275.145 70.9955 275.128 70.9869L275.167 70.2849C275.184 70.2935 275.223 70.3065 275.284 70.3239C275.345 70.3325 275.414 70.3369 275.492 70.3369C276.714 70.3369 277.325 67.7325 277.325 62.5239H281.446V70.9739H280.471V63.1479H278.001C277.992 65.7305 277.784 67.6979 277.377 69.0499C276.97 70.3932 276.398 71.0649 275.661 71.0649ZM286.094 71.0909C285.886 71.0909 285.7 71.0692 285.535 71.0259C285.379 70.9912 285.258 70.9565 285.171 70.9219C285.085 70.8785 285.033 70.8482 285.015 70.8309L285.158 70.1419C285.176 70.1592 285.223 70.1895 285.301 70.2329C285.379 70.2675 285.488 70.3022 285.626 70.3369C285.765 70.3715 285.921 70.3889 286.094 70.3889C286.424 70.3889 286.718 70.2979 286.978 70.1159C287.238 69.9252 287.494 69.5655 287.745 69.0369L284.365 62.5239H285.509L288.239 67.9969L290.228 62.5239H291.008L288.59 68.7119C288.244 69.5872 287.871 70.2025 287.472 70.5579C287.074 70.9132 286.614 71.0909 286.094 71.0909Z" fill="#316952"/>
</svg>
